<svg width="24" height="25" viewBox="0 0 24 25" fill="none" xmlns="http://www.w3.org/2000/svg">
<g id="fluent-mdl2:preview" clip-path="url(#clip0_20_1918)">
<path id="Vector" d="M13.0664 0.5L19.5 6.93359V8H12V0.5H13.0664ZM13.5 6.5H16.9336L13.5 3.06641V6.5ZM18 11V9.5H19.5V11H18ZM18 14V12.5H19.5V14H18ZM18 17V15.5H19.5V17H18ZM18 20V18.5H19.5V20H18ZM18 23V21.5H19.5V23H18ZM15 23V21.5H16.5V23H15ZM12 23V21.5H13.5V23H12ZM9 23V21.5H10.5V23H9ZM6 23V21.5H7.5V23H6ZM3 23V21.5H4.5V23H3ZM3 11V9.5H4.5V11H3ZM3 8V6.5H4.5V8H3ZM3 5V3.5H4.5V5H3ZM3 2V0.5H4.5V2H3ZM6 2V0.5H7.5V2H6ZM9 2V0.5H10.5V2H9ZM3 14V12.5H4.5V14H3ZM3 17V15.5H4.5V17H3ZM3 20V18.5H4.5V20H3Z" fill="#16DBCC"/>
</g>
<defs>
<clipPath id="clip0_20_1918">
<rect width="24" height="24" fill="white" transform="translate(0 0.5)"/>
</clipPath>
</defs>
</svg>
