<svg width="58" height="24" viewBox="0 0 58 24" fill="none" xmlns="http://www.w3.org/2000/svg" xmlns:xlink="http://www.w3.org/1999/xlink">
<path d="M8.194,22.513C13.57,22.513 16.764,18.309 16.764,11.189C16.764,8.509 16.251,6.253 15.27,4.51C13.849,1.8 11.402,0.335 8.312,0.335C3.712,0.335 0.46,3.426 0.46,7.762C0.46,11.834 3.39,14.793 7.418,14.793C9.894,14.793 11.9,13.636 12.896,11.629L12.94,11.629C12.94,11.629 12.999,11.629 13.014,11.629C13.043,11.629 13.146,11.629 13.146,11.629C13.146,16.463 11.314,19.349 8.224,19.349C6.407,19.349 5.001,18.353 4.518,16.756L0.753,16.756C1.383,20.228 4.327,22.513 8.194,22.513ZM8.326,11.79C5.895,11.79 4.166,10.062 4.166,7.645C4.166,5.286 5.982,3.484 8.341,3.484C10.699,3.484 12.516,5.315 12.516,7.703C12.516,10.062 10.743,11.79 8.326,11.79Z" fill="#FFFFFF"/>
<path d="M22.946,22.308C24.338,22.308 25.29,21.312 25.29,19.993C25.29,18.66 24.338,17.679 22.946,17.679C21.569,17.679 20.602,18.66 20.602,19.993C20.602,21.312 21.569,22.308 22.946,22.308ZM22.946,11.321C24.338,11.321 25.29,10.34 25.29,9.021C25.29,7.688 24.338,6.707 22.946,6.707C21.569,6.707 20.602,7.688 20.602,9.021C20.602,10.34 21.569,11.321 22.946,11.321Z" fill="#FFFFFF"/>
<path d="M39.001,22L42.619,22L42.619,18.06L45.476,18.06L45.476,14.866L42.619,14.866L42.619,0.862L37.287,0.862C33.552,6.487 30.578,11.189 28.674,14.69L28.674,18.06L39.001,18.06L39.001,22ZM32.175,14.734C34.636,10.398 36.833,6.927 38.855,3.938L39.06,3.938L39.06,14.954L32.175,14.954L32.175,14.734Z" fill="#FFFFFF"/>
<path d="M53.533,22L57.312,22L57.312,0.862L53.548,0.862L48.025,4.73L48.025,8.362L53.284,4.671L53.533,4.671L53.533,22Z" fill="#FFFFFF"/>
</svg>
