<svg width="36" height="22" viewBox="0 0 36 22" fill="none" xmlns="http://www.w3.org/2000/svg" xmlns:xlink="http://www.w3.org/1999/xlink">
<path d="M32.886,-0.667L30.886,-0.667C29.781,-0.667 28.886,0.228 28.886,1.333L28.886,18.666C28.886,19.771 29.781,20.666 30.886,20.666L32.886,20.666C33.99,20.666 34.886,19.771 34.886,18.666L34.886,1.333C34.886,0.228 33.99,-0.667 32.886,-0.667ZM21.552,4L23.552,4C24.657,4 25.552,4.895 25.552,6L25.552,18.666C25.552,19.771 24.657,20.666 23.552,20.666L21.552,20.666C20.448,20.666 19.552,19.771 19.552,18.666L19.552,6C19.552,4.895 20.448,4 21.552,4ZM14.219,8.666L12.219,8.666C11.115,8.666 10.219,9.562 10.219,10.666L10.219,18.666C10.219,19.771 11.115,20.666 12.219,20.666L14.219,20.666C15.324,20.666 16.219,19.771 16.219,18.666L16.219,10.666C16.219,9.562 15.324,8.666 14.219,8.666ZM4.886,12.666L2.886,12.666C1.781,12.666 0.886,13.562 0.886,14.666L0.886,18.666C0.886,19.771 1.781,20.666 2.886,20.666L4.886,20.666C5.99,20.666 6.886,19.771 6.886,18.666L6.886,14.666C6.886,13.562 5.99,12.666 4.886,12.666Z" clip-rule="evenodd" fill-rule="evenodd" fill="#FFFFFF"/>
</svg>
