<svg width="24" height="24" viewBox="0 0 24 24" fill="none" xmlns="http://www.w3.org/2000/svg">
<g id="search">
<path id="Vector" d="M22 20.7905L16.0659 14.959C17.2527 13.5767 18 11.8056 18 9.86177C18 5.54212 14.3956 2 10 2C5.6044 2 2 5.54212 2 9.86177C2 14.1814 5.6044 17.7235 10 17.7235C11.8022 17.7235 13.4286 17.162 14.7912 16.1685L20.7253 22L22 20.7905ZM3.75824 9.86177C3.75824 6.49244 6.57143 3.72786 10 3.72786C13.4286 3.72786 16.2418 6.49244 16.2418 9.86177C16.2418 13.2311 13.4286 15.9957 10 15.9957C6.57143 15.9957 3.75824 13.2311 3.75824 9.86177Z" fill="#797979"/>
<path id="Vector (Stroke)" fill-rule="evenodd" clip-rule="evenodd" d="M1.94995 9.86172C1.94995 5.51364 5.57756 1.94995 9.99995 1.94995C14.4223 1.94995 18.05 5.51364 18.05 9.86172C18.05 11.8021 17.3103 13.5708 16.1342 14.9559L22.0719 20.7911L20.7246 22.0695L14.7863 16.2337C13.4223 17.2178 11.7979 17.7735 9.99995 17.7735C5.57756 17.7735 1.94995 14.2098 1.94995 9.86172ZM9.99995 2.04995C5.63114 2.04995 2.04995 5.5705 2.04995 9.86172C2.04995 14.1529 5.63114 17.6735 9.99995 17.6735C11.7913 17.6735 13.4074 17.1154 14.7617 16.128L14.796 16.103L20.7258 21.9304L21.928 20.7898L15.9975 14.9618L16.0279 14.9263C17.2078 13.5522 17.95 11.7924 17.95 9.86172C17.95 5.5705 14.3688 2.04995 9.99995 2.04995ZM9.99995 3.77781C6.59817 3.77781 3.80819 6.52082 3.80819 9.86172C3.80819 13.2026 6.59817 15.9456 9.99995 15.9456C13.4017 15.9456 16.1917 13.2026 16.1917 9.86172C16.1917 6.52082 13.4017 3.77781 9.99995 3.77781ZM3.70819 9.86172C3.70819 6.46396 6.54459 3.67781 9.99995 3.67781C13.4553 3.67781 16.2917 6.46396 16.2917 9.86172C16.2917 13.2595 13.4553 16.0456 9.99995 16.0456C6.54459 16.0456 3.70819 13.2595 3.70819 9.86172Z" fill="white"/>
</g>
</svg>
