<svg width="92" height="92" viewBox="0 0 92 92" fill="none" xmlns="http://www.w3.org/2000/svg" xmlns:xlink="http://www.w3.org/1999/xlink">
<path d="M19.021,59.882L68.882,59.882C81.619,59.882 91.463,50.239 91.463,37.905C91.463,25.408 81.177,16.048 67.555,16.168C62.413,5.801 52.972,-0.187 41.841,-0.187C27.016,-0.187 14.521,11.505 13.355,26.493C5.56,28.622 0.537,35.172 0.537,43.087C0.537,53.051 8.011,59.882 19.021,59.882ZM52.046,79.127L57.27,70.087C57.993,68.841 57.592,67.435 56.387,66.751C55.182,66.029 53.815,66.431 53.092,67.677L47.788,76.797C47.145,77.963 47.467,79.368 48.714,80.092C48.996,80.247 49.306,80.346 49.626,80.382C49.946,80.417 50.271,80.39 50.58,80.3C50.89,80.21 51.179,80.061 51.43,79.859C51.682,79.658 51.891,79.409 52.046,79.127ZM61.369,90.617L73.221,70.046C73.945,68.841 73.581,67.475 72.417,66.751C71.293,66.069 69.846,66.431 69.083,67.636L57.311,88.127C56.627,89.373 56.949,90.779 58.154,91.502C59.32,92.145 60.685,91.783 61.369,90.617ZM20.065,79.166L25.288,70.127C26.011,68.882 25.65,67.475 24.445,66.792C23.198,66.069 21.832,66.47 21.109,67.716L15.846,76.836C15.163,78.002 15.525,79.408 16.73,80.092C17.009,80.256 17.317,80.362 17.637,80.404C17.957,80.446 18.283,80.423 18.594,80.337C18.905,80.25 19.196,80.102 19.448,79.901C19.701,79.7 19.911,79.45 20.065,79.166ZM29.387,90.659L41.279,70.087C41.963,68.882 41.601,67.516 40.475,66.792C40.199,66.626 39.893,66.517 39.574,66.472C39.256,66.426 38.931,66.445 38.62,66.528C38.309,66.61 38.018,66.755 37.764,66.952C37.51,67.149 37.298,67.396 37.141,67.677L25.329,88.168C24.645,89.412 25.007,90.82 26.212,91.541C27.378,92.184 28.744,91.823 29.387,90.659Z" fill="#FFFFFF" fill-opacity="0.8"/>
</svg>
