<svg width="40" height="36" viewBox="0 0 40 36" fill="none" xmlns="http://www.w3.org/2000/svg" xmlns:xlink="http://www.w3.org/1999/xlink">
<path d="M0,2C0,1.47 0.211,0.961 0.586,0.586C0.961,0.211 1.47,0 2,0L38,0C38.53,0 39.039,0.211 39.414,0.586C39.789,0.961 40,1.47 40,2L40,34C40,34.53 39.789,35.039 39.414,35.414C39.039,35.789 38.53,36 38,36L2,36C1.47,36 0.961,35.789 0.586,35.414C0.211,35.039 0,34.53 0,34L0,2ZM4,4L4,32L36,32L36,4L4,4ZM8,8L20,8L20,20L8,20L8,8ZM12,12L12,16L16,16L16,12L12,12ZM24,12L32,12L32,8L24,8L24,12ZM32,20L24,20L24,16L32,16L32,20ZM8,24L8,28L32,28L32,24L8,24Z" fill="#000000"/>
</svg>
