<svg width="32" height="40" viewBox="0 0 32 40" fill="none" xmlns="http://www.w3.org/2000/svg" xmlns:xlink="http://www.w3.org/1999/xlink">
<path d="M9.002,28C8.207,28 7.443,28.316 6.881,28.879C6.318,29.441 6.002,30.205 6.002,31C6.002,31.796 6.318,32.559 6.881,33.122C7.443,33.684 8.207,34 9.002,34L23.002,34C23.798,34 24.561,33.684 25.124,33.122C25.686,32.559 26.002,31.796 26.002,31C26.002,30.205 25.686,29.441 25.124,28.879C24.561,28.316 23.798,28 23.002,28L9.002,28ZM31.982,4.184C31.904,3.047 31.397,1.981 30.564,1.203C29.73,0.425 28.632,-0.008 27.492,-0.008L4.492,-0.008L4.184,0.002C3.047,0.08 1.981,0.587 1.203,1.421C0.425,2.254 -0.008,3.352 -0.008,4.492L-0.008,35.488L0.002,35.796C0.08,36.934 0.587,37.999 1.421,38.777C2.254,39.556 3.352,39.988 4.492,39.988L27.492,39.988L27.8,39.978C28.938,39.9 30.003,39.393 30.781,38.56C31.56,37.726 31.992,36.628 31.992,35.488L31.992,4.492L31.982,4.184ZM4.492,2.992L27.492,2.992L27.696,3.006C28.055,3.055 28.384,3.233 28.623,3.506C28.861,3.78 28.992,4.13 28.992,4.492L28.992,35.488L28.978,35.692C28.929,36.051 28.751,36.38 28.478,36.619C28.205,36.857 27.855,36.988 27.492,36.988L4.492,36.988L4.288,36.974C3.929,36.925 3.6,36.747 3.362,36.474C3.123,36.201 2.992,35.851 2.992,35.488L2.992,4.492L3.006,4.288C3.055,3.929 3.233,3.6 3.506,3.362C3.78,3.123 4.13,2.992 4.492,2.992Z" fill="#000000"/>
</svg>
