<svg width="32" height="38" viewBox="0 0 32 38" fill="none" xmlns="http://www.w3.org/2000/svg" xmlns:xlink="http://www.w3.org/1999/xlink">
<path d="M28.429,16C28.929,16 29.393,16.089 29.821,16.268C30.25,16.446 30.631,16.696 30.964,17.018C31.298,17.339 31.548,17.714 31.714,18.143C31.881,18.571 31.976,19.036 32,19.536C32,20 31.911,20.452 31.732,20.893C31.554,21.333 31.298,21.72 30.964,22.054L18.161,34.893L11.429,36.571L13.107,29.839L25.911,17.018C26.244,16.685 26.631,16.435 27.071,16.268C27.512,16.101 27.964,16.012 28.429,16ZM29.339,20.446C29.589,20.196 29.714,19.893 29.714,19.536C29.714,19.167 29.595,18.869 29.357,18.643C29.119,18.417 28.81,18.298 28.429,18.286C28.262,18.286 28.101,18.31 27.946,18.357C27.792,18.405 27.655,18.494 27.536,18.625L15.179,31.018L14.571,33.429L16.982,32.821L29.339,20.446ZM6.857,16L4.571,16L4.571,13.714L6.857,13.714L6.857,16ZM22.857,16L9.143,16L9.143,13.714L22.857,13.714L22.857,16ZM4.571,20.571L6.857,20.571L6.857,22.857L4.571,22.857L4.571,20.571ZM6.857,9.143L4.571,9.143L4.571,6.857L6.857,6.857L6.857,9.143ZM22.857,9.143L9.143,9.143L9.143,6.857L22.857,6.857L22.857,9.143ZM2.286,29.714L10.196,29.714L9.625,32L0,32L0,0L27.429,0L27.429,13.268C26.631,13.387 25.869,13.649 25.143,14.054L25.143,2.286L2.286,2.286L2.286,29.714ZM9.143,20.571L18.321,20.571L16.036,22.857L9.143,22.857L9.143,20.571Z" fill="#000000"/>
</svg>
