<svg width="882" height="498" viewBox="0 0 882 498" fill="none" xmlns="http://www.w3.org/2000/svg" xmlns:xlink="http://www.w3.org/1999/xlink">
<path d="M521,383.999L520.396,385.905L520.396,385.905L521,383.999ZM234,193L235.534,191.717L234,193ZM131,16L130.232,17.847L130.232,17.847L131,16ZM1,16L22.997,23.033L18.089,0.466L1,16ZM13.417,15.527C15.822,15.086 18.536,14.613 21.509,14.132L20.869,10.183C17.868,10.669 15.127,11.147 12.697,11.592L13.417,15.527ZM29.61,12.902C32.195,12.537 34.906,12.178 37.721,11.838L37.241,7.867C34.398,8.21 31.66,8.572 29.05,8.942L29.61,12.902ZM45.858,10.943C48.519,10.679 51.246,10.438 54.023,10.227L53.72,6.239C50.911,6.452 48.154,6.696 45.463,6.962L45.858,10.943ZM62.179,9.709C64.878,9.573 67.607,9.469 70.352,9.407L70.261,5.408C67.476,5.471 64.71,5.576 61.977,5.715L62.179,9.709ZM78.52,9.344C81.24,9.366 83.963,9.433 86.678,9.552L86.852,5.556C84.088,5.435 81.317,5.367 78.552,5.344L78.52,9.344ZM94.809,10.069C97.534,10.3 100.234,10.589 102.898,10.944L103.426,6.979C100.694,6.615 97.93,6.319 95.147,6.083L94.809,10.069ZM110.906,12.236C113.6,12.752 116.237,13.347 118.802,14.026L119.825,10.159C117.163,9.454 114.436,8.84 111.659,8.308L110.906,12.236ZM126.494,16.403C127.765,16.858 129.012,17.339 130.232,17.847L131.768,14.153C130.484,13.619 129.174,13.114 127.843,12.637L126.494,16.403ZM130.232,17.847C131.491,18.37 132.721,18.91 133.923,19.464L135.599,15.832C134.35,15.256 133.074,14.696 131.768,14.153L130.232,17.847ZM140.995,23.081C143.352,24.414 145.588,25.815 147.711,27.279L149.982,23.987C147.76,22.454 145.423,20.99 142.963,19.599L140.995,23.081ZM154.018,32.085C156.072,33.812 158.007,35.61 159.835,37.474L162.691,34.674C160.775,32.719 158.746,30.834 156.591,29.023L154.018,32.085ZM165.108,43.389C166.78,45.451 168.351,47.58 169.833,49.771L173.146,47.531C171.604,45.248 169.964,43.025 168.214,40.869L165.108,43.389ZM174.027,56.539C175.336,58.842 176.568,61.201 177.736,63.613L181.336,61.871C180.134,59.386 178.861,56.948 177.504,54.562L174.027,56.539ZM181.021,70.92C182.047,73.369 183.021,75.862 183.956,78.395L187.708,77.01C186.756,74.431 185.761,71.884 184.711,69.375L181.021,70.92ZM186.617,86.001C187.462,88.537 188.279,91.105 189.079,93.7L192.902,92.52C192.094,89.903 191.268,87.307 190.412,84.737L186.617,86.001ZM191.408,101.447C192.166,104.024 192.917,106.62 193.673,109.234L197.516,108.123C196.76,105.509 196.006,102.905 195.245,100.318L191.408,101.447ZM195.939,117.042C196.697,119.634 197.469,122.239 198.263,124.849L202.09,123.686C201.302,121.093 200.534,118.503 199.778,115.919L195.939,117.042ZM200.7,132.631C201.534,135.21 202.4,137.792 203.304,140.373L207.08,139.049C206.186,136.503 205.332,133.952 204.506,131.4L200.7,132.631ZM206.128,148.052C207.108,150.59 208.136,153.121 209.22,155.644L212.894,154.065C211.832,151.592 210.824,149.107 209.86,146.612L206.128,148.052ZM212.618,163.116C213.8,165.57 215.044,168.01 216.36,170.433L219.874,168.524C218.592,166.161 217.376,163.779 216.222,161.38L212.618,163.116ZM220.468,177.552C221.89,179.871 223.388,182.169 224.966,184.443L228.252,182.162C226.718,179.952 225.262,177.717 223.878,175.461L220.468,177.552ZM229.858,191.066C230.706,192.145 231.574,193.217 232.466,194.282L235.534,191.717C234.67,190.683 233.826,189.642 233.004,188.594L229.858,191.066ZM232.466,194.282C233.326,195.312 234.186,196.336 235.046,197.355L238.104,194.775C237.246,193.761 236.39,192.742 235.534,191.717L232.466,194.282ZM240.21,203.41C241.96,205.441 243.71,207.451 245.46,209.443L248.464,206.801C246.722,204.821 244.982,202.82 243.24,200.799L240.21,203.41ZM250.758,215.399C252.544,217.387 254.33,219.351 256.116,221.297L259.062,218.589C257.284,216.655 255.508,214.701 253.732,212.727L250.758,215.399ZM261.56,227.153C263.39,229.099 265.222,231.025 267.054,232.931L269.936,230.157C268.114,228.263 266.294,226.349 264.474,224.413L261.56,227.153ZM272.616,238.639C274.496,240.545 276.38,242.433 278.264,244.297L281.078,241.453C279.204,239.601 277.334,237.725 275.464,235.829L272.616,238.639ZM283.974,249.873C285.894,251.725 287.818,253.557 289.744,255.365L292.484,252.451C290.57,250.653 288.658,248.833 286.75,246.993L283.974,249.873ZM295.608,260.801C297.582,262.605 299.558,264.389 301.54,266.151L304.198,263.163C302.232,261.413 300.268,259.641 298.308,257.849L295.608,260.801ZM307.536,271.411C309.556,273.159 311.582,274.885 313.61,276.589L316.184,273.527C314.17,271.833 312.158,270.121 310.152,268.385L307.536,271.411ZM319.768,281.687C321.836,283.375 323.912,285.041 325.992,286.689L328.474,283.551C326.41,281.917 324.35,280.263 322.296,278.587L319.768,281.687ZM332.286,291.593C334.404,293.219 336.528,294.825 338.658,296.409L341.046,293.199C338.932,291.627 336.824,290.035 334.72,288.421L332.286,291.593ZM345.106,301.129C347.27,302.689 349.442,304.229 351.62,305.749L353.908,302.467C351.746,300.959 349.592,299.433 347.444,297.885L345.106,301.129ZM358.202,310.265C360.414,311.757 362.63,313.229 364.856,314.683L367.044,311.333C364.834,309.891 362.634,308.431 360.44,306.949L358.202,310.265ZM371.58,318.999C373.834,320.421 376.096,321.825 378.366,323.209L380.448,319.795C378.196,318.419 375.95,317.027 373.714,315.615L371.58,318.999ZM385.214,327.315C387.508,328.667 389.812,330.003 392.124,331.319L394.104,327.843C391.808,326.535 389.522,325.211 387.246,323.869L385.214,327.315ZM399.094,335.219C401.426,336.501 403.766,337.765 406.118,339.013L407.994,335.481C405.66,334.241 403.336,332.985 401.022,331.713L399.094,335.219ZM413.198,342.707C415.566,343.921 417.942,345.117 420.332,346.301L422.106,342.715C419.734,341.541 417.372,340.353 415.022,339.147L413.198,342.707ZM427.51,349.791C429.906,350.935 432.314,352.067 434.734,353.183L436.41,349.551C434.006,348.441 431.614,347.319 429.234,346.181L427.51,349.791ZM442.004,356.479C444.43,357.561 446.868,358.629 449.32,359.685L450.9,356.011C448.466,354.961 446.042,353.901 443.632,352.827L442.004,356.479ZM456.666,362.793C459.114,363.811 461.574,364.819 464.048,365.813L465.54,362.101C463.082,361.113 460.636,360.113 458.202,359.101L456.666,362.793ZM471.47,368.747C473.944,369.709 476.43,370.659 478.93,371.599L480.338,367.857C477.852,366.921 475.378,365.975 472.92,365.019L471.47,368.747ZM486.404,374.367C488.892,375.273 491.394,376.169 493.91,377.055L495.24,373.283C492.738,372.401 490.248,371.509 487.774,370.607L486.404,374.367ZM501.448,379.673C503.956,380.529 506.478,381.377 509.014,382.217L510.272,378.421C507.748,377.585 505.238,376.741 502.742,375.887L501.448,379.673ZM516.584,384.689C517.85,385.097 519.122,385.503 520.396,385.905L521.604,382.093C520.336,381.691 519.07,381.287 517.808,380.881L516.584,384.689ZM520.396,385.905C521.606,386.289 522.83,386.677 524.066,387.069L525.274,383.255C524.038,382.863 522.814,382.477 521.604,382.093L520.396,385.905ZM531.624,389.463C534.058,390.233 536.534,391.017 539.05,391.813L540.256,387.999C537.742,387.203 535.266,386.419 532.832,385.649L531.624,389.463ZM546.552,394.187C549.024,394.969 551.532,395.763 554.07,396.565L555.276,392.751C552.738,391.949 550.232,391.155 547.758,390.373L546.552,394.187ZM561.526,398.923C564.012,399.709 566.526,400.503 569.062,401.305L570.268,397.491C567.73,396.689 565.218,395.895 562.732,395.109L561.526,398.923ZM576.518,403.661C579,404.445 581.504,405.235 584.028,406.033L585.232,402.219C582.71,401.421 580.206,400.631 577.722,399.845L576.518,403.661ZM591.512,408.395C593.996,409.179 596.494,409.967 599.008,410.761L600.212,406.947C597.698,406.153 595.198,405.365 592.716,404.581L591.512,408.395ZM606.508,413.127C608.99,413.911 611.486,414.697 613.994,415.487L615.196,411.673C612.69,410.883 610.194,410.095 607.71,409.313L606.508,413.127ZM621.5,417.855C623.986,418.637 626.48,419.423 628.982,420.213L630.184,416.397C627.682,415.609 625.188,414.823 622.702,414.039L621.5,417.855ZM636.49,422.577C638.978,423.361 641.474,424.147 643.974,424.933L645.176,421.119C642.676,420.331 640.18,419.545 637.692,418.761L636.49,422.577ZM651.478,427.295C653.972,428.081 656.468,428.867 658.968,429.653L660.168,425.837C657.67,425.051 655.172,424.265 652.678,423.481L651.478,427.295ZM666.466,432.011C668.964,432.795 671.464,433.581 673.962,434.367L675.162,430.551C672.664,429.765 670.164,428.979 667.666,428.195L666.466,432.011ZM681.454,436.721C683.958,437.507 686.46,438.293 688.958,439.077L690.156,435.261C687.658,434.477 685.156,433.691 682.652,432.905L681.454,436.721ZM696.446,441.427C698.954,442.215 701.458,442.999 703.956,443.783L705.152,439.967C702.656,439.183 700.152,438.397 697.642,437.611L696.446,441.427ZM711.44,446.129C713.954,446.917 716.458,447.703 718.954,448.483L720.15,444.667C717.654,443.885 715.15,443.101 712.636,442.313L711.44,446.129ZM726.44,450.829C728.956,451.615 731.46,452.399 733.952,453.179L735.146,449.361C732.656,448.581 730.152,447.799 727.636,447.011L726.44,450.829ZM741.446,455.521C743.962,456.309 746.464,457.091 748.948,457.867L750.142,454.049C747.656,453.273 745.156,452.491 742.64,451.705L741.446,455.521ZM756.456,460.211C758.97,460.995 761.466,461.773 763.938,462.543L765.128,458.725C762.656,457.955 760.162,457.177 757.648,456.391L756.456,460.211ZM771.47,464.891C773.98,465.673 776.464,466.445 778.92,467.209L780.108,463.389C777.652,462.625 775.168,461.853 772.66,461.071L771.47,464.891ZM786.478,469.559C789.008,470.345 791.506,471.121 793.97,471.885L795.156,468.065C792.692,467.301 790.194,466.525 787.664,465.739L786.478,469.559ZM801.456,474.205C804.018,474.999 806.536,475.777 809.008,476.541L810.188,472.721C807.718,471.957 805.2,471.177 802.64,470.385L801.456,474.205ZM816.488,478.853C819.042,479.639 821.536,480.409 823.972,481.157L825.15,477.335C822.714,476.585 820.22,475.817 817.668,475.029L816.488,478.853ZM831.538,483.481C834.13,484.277 836.642,485.045 839.066,485.787L840.236,481.961C837.812,481.221 835.302,480.453 832.712,479.657L831.538,483.481ZM846.574,488.073C849.21,488.875 851.716,489.633 854.088,490.349L855.244,486.519C852.874,485.805 850.37,485.047 847.738,484.247L846.574,488.073ZM861.638,492.615C864.44,493.449 866.97,494.197 869.208,494.851L870.328,491.011C868.1,490.359 865.576,489.615 862.782,488.781L861.638,492.615ZM876.804,497.011C878.566,497.493 879.882,497.825 880.632,497.965L881.368,494.033C880.802,493.927 879.638,493.639 877.854,493.153L876.804,497.011Z" fill="#000000"/>
</svg>
