<svg width="34" height="46" viewBox="0 0 34 46" fill="none" xmlns="http://www.w3.org/2000/svg" xmlns:xlink="http://www.w3.org/1999/xlink">
<path d="M20.133,1L33,13.867L33,16L18,16L18,1L20.133,1ZM21,13L27.867,13L21,6.133L21,13ZM30,22L30,19L33,19L33,22L30,22ZM30,28L30,25L33,25L33,28L30,28ZM30,34L30,31L33,31L33,34L30,34ZM30,40L30,37L33,37L33,40L30,40ZM30,46L30,43L33,43L33,46L30,46ZM24,46L24,43L27,43L27,46L24,46ZM18,46L18,43L21,43L21,46L18,46ZM12,46L12,43L15,43L15,46L12,46ZM6,46L6,43L9,43L9,46L6,46ZM0,46L0,43L3,43L3,46L0,46ZM0,22L0,19L3,19L3,22L0,22ZM0,16L0,13L3,13L3,16L0,16ZM0,10L0,7L3,7L3,10L0,10ZM0,4L0,1L3,1L3,4L0,4ZM6,4L6,1L9,1L9,4L6,4ZM12,4L12,1L15,1L15,4L12,4ZM0,28L0,25L3,25L3,28L0,28ZM0,34L0,31L3,31L3,34L0,34ZM0,40L0,37L3,37L3,40L0,40Z" fill="#000000"/>
</svg>
