<svg width="46" height="28" viewBox="0 0 46 28" fill="none" xmlns="http://www.w3.org/2000/svg" xmlns:xlink="http://www.w3.org/1999/xlink">
<path d="M44.303,13.5L44.303,25.5C44.303,26.097 44.066,26.669 43.644,27.091C43.222,27.513 42.649,27.75 42.053,27.75L30.053,27.75C29.456,27.75 28.884,27.513 28.462,27.091C28.04,26.669 27.803,26.097 27.803,25.5C27.803,24.903 28.04,24.331 28.462,23.909C28.884,23.487 29.456,23.25 30.053,23.25L36.615,23.25L24.053,10.688L18.145,16.598C17.935,16.807 17.687,16.974 17.414,17.087C17.14,17.201 16.847,17.259 16.551,17.259C16.255,17.259 15.961,17.201 15.688,17.087C15.414,16.974 15.166,16.807 14.957,16.598L1.457,3.098C1.034,2.675 0.797,2.102 0.797,1.504C0.797,1.208 0.855,0.915 0.968,0.641C1.082,0.368 1.248,0.119 1.457,-0.09C1.666,-0.299 1.915,-0.465 2.188,-0.578C2.462,-0.692 2.755,-0.75 3.051,-0.75C3.649,-0.75 4.222,-0.513 4.645,-0.09L16.553,11.813L22.461,5.903C22.67,5.693 22.918,5.526 23.192,5.413C23.465,5.299 23.758,5.241 24.054,5.241C24.351,5.241 24.644,5.299 24.917,5.413C25.191,5.526 25.439,5.693 25.648,5.903L39.803,20.063L39.803,13.5C39.803,12.903 40.04,12.331 40.462,11.909C40.884,11.487 41.456,11.25 42.053,11.25C42.649,11.25 43.222,11.487 43.644,11.909C44.066,12.331 44.303,12.903 44.303,13.5Z" fill="#0066FF"/>
</svg>
