<svg width="36" height="40" viewBox="0 0 36 40" fill="none" xmlns="http://www.w3.org/2000/svg" xmlns:xlink="http://www.w3.org/1999/xlink">
<path d="M28,0L28,4L34.014,4C35.11,4 36,4.89 36,5.986L36,38.014C35.999,38.541 35.79,39.045 35.418,39.418C35.045,39.79 34.541,39.999 34.014,40L1.986,40C1.459,40 0.954,39.791 0.582,39.418C0.209,39.046 0,38.541 0,38.014L0,5.986C0,4.89 0.89,4 1.986,4L8,4L8,0L28,0ZM8,8L4,8L4,36L32,36L32,8L28,8L28,12L8,12L8,8ZM12,28L12,32L8,32L8,28L12,28ZM12,22L12,26L8,26L8,22L12,22ZM12,16L12,20L8,20L8,16L12,16ZM24,4L12,4L12,8L24,8L24,4Z" fill="#000000"/>
</svg>
