<svg width="46" height="42" viewBox="0 0 46 42" fill="none" xmlns="http://www.w3.org/2000/svg" xmlns:xlink="http://www.w3.org/1999/xlink">
<path d="M42.681,22.054C43.067,22.069 43.451,22.005 43.812,21.867C44.173,21.73 44.502,21.52 44.78,21.253C45.058,20.985 45.28,20.663 45.431,20.308C45.582,19.953 45.66,19.57 45.66,19.184C45.66,18.798 45.582,18.416 45.431,18.06C45.28,17.705 45.058,17.384 44.78,17.116C44.502,16.848 44.173,16.639 43.812,16.501C43.451,16.363 43.067,16.3 42.681,16.314C42.619,16.314 42.561,16.326 42.497,16.33L41.533,12.53C41.851,12.291 42.117,11.988 42.311,11.64C42.506,11.292 42.626,10.908 42.663,10.511C42.701,10.114 42.655,9.714 42.528,9.336C42.402,8.958 42.198,8.611 41.929,8.316C41.661,8.021 41.334,7.786 40.969,7.626C40.604,7.465 40.21,7.382 39.812,7.383C39.413,7.383 39.019,7.467 38.655,7.629C38.291,7.791 37.964,8.027 37.697,8.322L27.917,3.776C28.019,3.485 28.073,3.18 28.077,2.872C28.087,2.489 28.02,2.107 27.88,1.75C27.741,1.393 27.531,1.067 27.263,0.792C26.995,0.518 26.676,0.299 26.322,0.15C25.969,0.001 25.589,-0.076 25.206,-0.076C24.822,-0.076 24.442,0.001 24.089,0.15C23.736,0.299 23.416,0.518 23.148,0.792C22.881,1.067 22.671,1.393 22.531,1.75C22.391,2.107 22.325,2.489 22.335,2.872C22.34,2.97 22.35,3.067 22.365,3.164L16.137,5.074C15.707,4.54 15.099,4.178 14.424,4.054C13.749,3.93 13.053,4.053 12.461,4.401C11.869,4.748 11.422,5.296 11.201,5.945C10.98,6.595 11,7.302 11.257,7.938L5.397,13.17C4.955,12.899 4.447,12.755 3.929,12.752C3.243,12.749 2.578,12.992 2.056,13.438C1.535,13.883 1.19,14.501 1.086,15.179C0.982,15.857 1.125,16.55 1.489,17.132C1.852,17.714 2.413,18.145 3.069,18.348L2.681,22.08C2.243,22.141 1.826,22.302 1.461,22.55C1.096,22.799 0.794,23.129 0.577,23.514C0.361,23.899 0.237,24.328 0.214,24.769C0.191,25.21 0.27,25.65 0.446,26.056C0.622,26.461 0.888,26.82 1.226,27.105C1.563,27.39 1.962,27.593 2.39,27.698C2.819,27.804 3.266,27.808 3.697,27.712C4.128,27.616 4.531,27.422 4.875,27.144L6.807,27.994L6.801,28.054C6.803,28.769 7.073,29.458 7.558,29.984C8.042,30.511 8.705,30.837 9.418,30.9C10.13,30.962 10.84,30.756 11.409,30.323C11.977,29.889 12.363,29.258 12.491,28.554L14.699,28.554C14.872,29.178 15.252,29.725 15.776,30.105C16.301,30.485 16.939,30.676 17.586,30.646C18.233,30.616 18.85,30.368 19.338,29.941C19.825,29.515 20.153,28.935 20.269,28.298L26.483,28.502C26.938,28.895 27.506,29.131 28.105,29.176C28.705,29.221 29.302,29.072 29.811,28.752C33.319,30.666 36.277,33.447 38.405,36.83C38.264,37.171 38.192,37.536 38.191,37.904C38.188,38.395 38.311,38.878 38.548,39.308C38.785,39.738 39.129,40.099 39.546,40.359C39.962,40.618 40.439,40.766 40.929,40.789C41.419,40.812 41.907,40.709 42.346,40.489C42.785,40.27 43.161,39.942 43.437,39.536C43.713,39.13 43.881,38.661 43.924,38.172C43.967,37.683 43.884,37.191 43.682,36.743C43.481,36.295 43.169,35.907 42.775,35.614C41.77,34.152 41.064,32.506 40.699,30.77C41.191,30.614 41.632,30.326 41.973,29.938C42.314,29.551 42.543,29.077 42.636,28.569C42.728,28.061 42.681,27.537 42.498,27.054C42.315,26.57 42.004,26.146 41.599,25.826L42.681,22.054ZM43.811,19.184C43.81,19.407 43.744,19.625 43.62,19.81C43.496,19.995 43.319,20.14 43.113,20.225C42.907,20.31 42.681,20.332 42.462,20.288C42.243,20.245 42.043,20.137 41.885,19.98C41.727,19.822 41.62,19.621 41.576,19.403C41.533,19.184 41.555,18.957 41.64,18.751C41.725,18.545 41.87,18.369 42.055,18.245C42.24,18.121 42.458,18.054 42.681,18.054C42.98,18.054 43.268,18.173 43.48,18.385C43.692,18.597 43.811,18.884 43.811,19.184ZM41.523,16.56C41.054,16.769 40.65,17.101 40.353,17.519C40.056,17.938 39.877,18.429 39.835,18.94L37.593,18.94C37.56,18.549 37.447,18.17 37.261,17.824C37.074,17.479 36.819,17.176 36.511,16.934L39.325,13.068C39.756,13.155 40.202,13.127 40.619,12.988L41.523,16.56ZM36.975,27.694L31.179,26.21C31.155,25.563 30.912,24.944 30.489,24.454L32.829,21.304C33.188,21.642 33.631,21.878 34.113,21.986C34.594,22.094 35.095,22.07 35.565,21.918L38.069,25.786C37.769,26.016 37.518,26.303 37.331,26.631C37.143,26.958 37.022,27.32 36.975,27.694ZM16.055,8.77L24.217,13.042C24.042,13.549 24.03,14.098 24.183,14.612L18.943,17.306C18.676,16.996 18.345,16.746 17.974,16.575C17.602,16.403 17.198,16.314 16.789,16.312C16.765,16.312 16.743,16.318 16.719,16.32L14.833,9.58C15.303,9.421 15.725,9.142 16.055,8.77ZM38.353,12.708L35.619,16.46C35.158,16.301 34.662,16.267 34.184,16.363C33.705,16.458 33.261,16.68 32.897,17.004L29.715,14.604C29.824,14.262 29.848,13.898 29.785,13.544L37.199,11.424C37.444,11.959 37.846,12.405 38.353,12.704M34.745,20.308C34.522,20.308 34.304,20.241 34.119,20.117C33.933,19.993 33.789,19.817 33.704,19.61C33.619,19.404 33.597,19.177 33.641,18.959C33.684,18.74 33.792,18.539 33.95,18.382C34.108,18.224 34.309,18.117 34.527,18.074C34.746,18.03 34.973,18.053 35.179,18.138C35.385,18.224 35.561,18.368 35.685,18.554C35.809,18.739 35.875,18.957 35.875,19.18C35.874,19.479 35.755,19.766 35.543,19.978C35.331,20.189 35.044,20.308 34.745,20.308ZM26.947,15.008C26.724,15.008 26.506,14.941 26.321,14.817C26.136,14.693 25.991,14.517 25.906,14.311C25.821,14.105 25.799,13.878 25.842,13.66C25.886,13.441 25.993,13.24 26.151,13.082C26.309,12.925 26.509,12.817 26.728,12.774C26.947,12.73 27.173,12.752 27.379,12.838C27.585,12.923 27.762,13.067 27.886,13.252C28.01,13.437 28.076,13.655 28.077,13.878C28.076,14.177 27.957,14.464 27.745,14.676C27.533,14.887 27.246,15.008 26.947,15.008ZM16.787,18.048C17.01,18.048 17.228,18.114 17.413,18.238C17.599,18.362 17.743,18.538 17.829,18.744C17.914,18.95 17.936,19.177 17.893,19.395C17.85,19.614 17.742,19.815 17.585,19.973C17.427,20.131 17.227,20.239 17.008,20.282C16.789,20.326 16.562,20.304 16.356,20.219C16.15,20.134 15.974,19.99 15.85,19.804C15.726,19.619 15.659,19.401 15.659,19.178C15.659,18.878 15.778,18.591 15.99,18.379C16.202,18.167 16.489,18.048 16.789,18.048M19.661,19.178C19.659,18.828 19.592,18.482 19.465,18.156L24.601,15.516C24.864,15.895 25.216,16.205 25.625,16.419C26.034,16.633 26.489,16.745 26.951,16.746L26.999,16.742L26.131,24.062L18.319,25.05C18.162,25 18.001,24.964 17.839,24.942L17.245,22.002C17.917,21.894 18.529,21.551 18.971,21.034C19.414,20.517 19.658,19.859 19.661,19.178ZM17.453,26.65C17.676,26.651 17.893,26.717 18.079,26.841C18.264,26.965 18.408,27.141 18.493,27.347C18.578,27.553 18.6,27.78 18.557,27.999C18.513,28.217 18.406,28.418 18.248,28.576C18.091,28.733 17.89,28.841 17.671,28.884C17.453,28.928 17.226,28.906 17.02,28.821C16.814,28.736 16.638,28.591 16.514,28.406C16.389,28.221 16.323,28.003 16.323,27.78C16.323,27.48 16.442,27.193 16.654,26.981C16.866,26.769 17.153,26.65 17.453,26.65ZM19.605,25.9L25.711,25.13C25.54,25.497 25.45,25.897 25.449,26.302C25.447,26.707 25.533,27.108 25.701,27.476L20.275,27.3C20.185,26.78 19.953,26.296 19.605,25.9ZM28.031,16.536C28.536,16.329 28.973,15.982 29.289,15.536L32.261,17.776C32.02,18.184 31.888,18.646 31.877,19.119C31.867,19.592 31.978,20.06 32.201,20.478L29.715,23.818C29.334,23.598 28.906,23.47 28.466,23.446C28.027,23.421 27.588,23.501 27.185,23.678L28.031,16.536ZM39.811,9.12C40.034,9.12 40.252,9.186 40.437,9.31C40.623,9.434 40.767,9.61 40.853,9.816C40.938,10.023 40.961,10.249 40.917,10.468C40.873,10.687 40.766,10.888 40.608,11.046C40.451,11.203 40.25,11.311 40.031,11.354C39.812,11.398 39.585,11.376 39.379,11.29C39.173,11.205 38.997,11.06 38.873,10.875C38.749,10.689 38.683,10.471 38.683,10.248C38.683,9.949 38.802,9.662 39.014,9.45C39.226,9.239 39.511,9.12 39.811,9.12ZM37.157,9.172C37.016,9.513 36.944,9.879 36.943,10.248C36.943,10.318 36.959,10.384 36.963,10.454L29.499,12.586C29.261,12.114 28.897,11.717 28.447,11.439C27.997,11.16 27.479,11.012 26.951,11.01C26.865,11.01 26.781,11.03 26.697,11.036L25.655,5.696C26.359,5.585 26.996,5.214 27.441,4.656L37.157,9.172ZM25.205,1.74C25.428,1.74 25.646,1.806 25.831,1.93C26.017,2.054 26.161,2.23 26.247,2.436C26.332,2.642 26.354,2.869 26.311,3.087C26.268,3.306 26.161,3.507 26.003,3.665C25.845,3.823 25.645,3.93 25.426,3.974C25.207,4.018 24.981,3.996 24.774,3.911C24.568,3.826 24.392,3.681 24.268,3.496C24.144,3.311 24.077,3.093 24.077,2.87C24.077,2.571 24.195,2.284 24.407,2.072C24.618,1.86 24.905,1.741 25.205,1.74ZM22.637,4.124C22.828,4.518 23.107,4.864 23.452,5.134C23.797,5.404 24.2,5.591 24.629,5.682L25.725,11.292C25.311,11.49 24.95,11.784 24.673,12.15L16.583,7.918C16.839,7.296 16.856,6.601 16.629,5.968L22.637,4.124ZM13.917,5.74C14.14,5.74 14.358,5.806 14.543,5.93C14.729,6.054 14.873,6.23 14.959,6.436C15.044,6.642 15.066,6.869 15.023,7.087C14.98,7.306 14.872,7.507 14.715,7.665C14.557,7.823 14.357,7.93 14.138,7.974C13.919,8.018 13.692,7.996 13.486,7.911C13.28,7.826 13.104,7.681 12.98,7.496C12.856,7.311 12.789,7.093 12.789,6.87C12.789,6.571 12.907,6.284 13.119,6.072C13.33,5.86 13.617,5.741 13.917,5.74ZM13.837,9.732L15.737,16.516C15.188,16.733 14.718,17.114 14.393,17.606L6.795,15.668L6.801,15.622C6.797,14.968 6.568,14.335 6.153,13.83L11.801,8.792C12.059,9.078 12.372,9.309 12.721,9.47C13.071,9.632 13.45,9.721 13.835,9.732M4.223,24.906C4.223,25.129 4.156,25.347 4.033,25.533C3.909,25.718 3.732,25.863 3.526,25.948C3.32,26.034 3.093,26.056 2.875,26.013C2.656,25.969 2.455,25.862 2.297,25.704C2.139,25.546 2.032,25.345 1.988,25.126C1.945,24.907 1.967,24.681 2.052,24.475C2.138,24.268 2.282,24.092 2.468,23.968C2.653,23.844 2.872,23.778 3.095,23.778C3.394,23.779 3.68,23.898 3.892,24.109C4.103,24.321 4.222,24.607 4.223,24.906ZM3.683,22.096L4.061,18.48C4.615,18.454 5.15,18.267 5.601,17.943C6.052,17.618 6.398,17.17 6.599,16.652L13.995,18.538C13.9,18.915 13.89,19.309 13.967,19.69L5.281,23.07C4.871,22.576 4.308,22.234 3.681,22.098M3.925,14.494C4.148,14.494 4.366,14.56 4.551,14.684C4.737,14.808 4.881,14.984 4.967,15.19C5.052,15.396 5.074,15.623 5.031,15.841C4.988,16.06 4.88,16.261 4.723,16.419C4.565,16.577 4.365,16.684 4.146,16.728C3.927,16.772 3.7,16.75 3.494,16.665C3.288,16.58 3.112,16.435 2.988,16.25C2.864,16.065 2.797,15.847 2.797,15.624C2.797,15.325 2.915,15.038 3.127,14.826C3.338,14.614 3.625,14.495 3.925,14.494ZM5.559,26.354C5.778,25.997 5.912,25.595 5.952,25.179C5.991,24.762 5.935,24.342 5.787,23.95L14.319,20.63C14.512,20.96 14.769,21.248 15.075,21.477C15.381,21.706 15.73,21.872 16.101,21.964L12.371,27.13C12.184,26.575 11.831,26.091 11.36,25.743C10.889,25.395 10.322,25.2 9.737,25.185C9.151,25.17 8.575,25.335 8.086,25.658C7.598,25.98 7.22,26.446 7.005,26.99L5.559,26.354ZM9.667,29.184C9.444,29.184 9.226,29.117 9.041,28.993C8.855,28.869 8.711,28.693 8.626,28.487C8.541,28.281 8.519,28.054 8.562,27.836C8.606,27.617 8.713,27.416 8.871,27.259C9.029,27.101 9.229,26.994 9.448,26.95C9.667,26.906 9.893,26.929 10.099,27.014C10.305,27.099 10.482,27.243 10.606,27.428C10.73,27.613 10.796,27.831 10.797,28.054C10.797,28.354 10.678,28.641 10.466,28.853C10.254,29.065 9.966,29.184 9.667,29.184ZM16.481,22.572L16.839,24.976C16.238,25.109 15.696,25.432 15.292,25.896C14.889,26.361 14.646,26.943 14.599,27.556L13.199,27.556L16.481,22.572ZM28.313,27.442C28.09,27.442 27.872,27.375 27.687,27.251C27.502,27.127 27.357,26.951 27.272,26.745C27.187,26.539 27.165,26.312 27.208,26.094C27.252,25.875 27.359,25.674 27.517,25.517C27.675,25.359 27.875,25.252 28.094,25.208C28.313,25.164 28.539,25.187 28.745,25.272C28.951,25.357 29.128,25.501 29.252,25.686C29.376,25.871 29.442,26.089 29.443,26.312C29.443,26.612 29.324,26.899 29.112,27.111C28.9,27.323 28.612,27.442 28.313,27.442ZM41.059,39.032C40.836,39.032 40.617,38.966 40.432,38.842C40.246,38.718 40.102,38.542 40.017,38.336C39.931,38.13 39.909,37.903 39.952,37.684C39.996,37.465 40.103,37.264 40.261,37.107C40.419,36.949 40.62,36.841 40.839,36.798C41.057,36.754 41.284,36.777 41.49,36.862C41.696,36.947 41.873,37.092 41.997,37.277C42.12,37.463 42.187,37.681 42.187,37.904C42.186,38.203 42.067,38.49 41.856,38.701C41.644,38.913 41.358,39.032 41.059,39.032ZM41.059,35.032C40.677,35.032 40.3,35.109 39.949,35.257C39.597,35.405 39.279,35.621 39.013,35.894C36.883,32.633 33.994,29.938 30.593,28.04C30.759,27.822 30.893,27.581 30.991,27.324L37.037,28.77C37.192,29.371 37.538,29.905 38.022,30.292C38.507,30.68 39.104,30.899 39.725,30.918C39.973,32.383 40.499,33.787 41.275,35.054C41.201,35.048 41.133,35.032 41.059,35.032ZM39.807,29.186C39.584,29.186 39.366,29.12 39.18,28.996C38.995,28.872 38.85,28.696 38.765,28.49C38.679,28.284 38.657,28.058 38.7,27.839C38.744,27.62 38.851,27.419 39.008,27.261C39.166,27.103 39.367,26.996 39.585,26.952C39.804,26.908 40.031,26.93 40.237,27.015C40.443,27.101 40.619,27.245 40.744,27.43C40.868,27.615 40.934,27.833 40.935,28.056C40.935,28.356 40.816,28.643 40.604,28.855C40.393,29.066 40.106,29.186 39.807,29.186ZM40.695,25.34C40.133,25.137 39.519,25.133 38.955,25.328L36.457,21.472C36.962,21.092 37.328,20.556 37.497,19.946L39.923,19.946C40.044,20.384 40.267,20.786 40.574,21.121C40.881,21.455 41.263,21.712 41.689,21.87L40.695,25.34Z" fill="#FFFFFF"/>
</svg>
