<svg width="46" height="30" viewBox="0 0 46 30" fill="none" xmlns="http://www.w3.org/2000/svg" xmlns:xlink="http://www.w3.org/1999/xlink">
<path d="M44.303,2.5L44.303,14.5C44.303,15.097 44.066,15.669 43.644,16.091C43.222,16.513 42.649,16.75 42.053,16.75C41.456,16.75 40.884,16.513 40.462,16.091C40.04,15.669 39.803,15.097 39.803,14.5L39.803,7.938L25.644,22.097C25.435,22.307 25.187,22.474 24.914,22.587C24.64,22.701 24.347,22.759 24.051,22.759C23.755,22.759 23.461,22.701 23.188,22.587C22.914,22.474 22.666,22.307 22.457,22.097L16.553,16.188L4.645,28.092C4.222,28.515 3.649,28.752 3.051,28.752C2.453,28.752 1.88,28.515 1.457,28.092C1.034,27.669 0.797,27.096 0.797,26.498C0.797,25.9 1.034,25.327 1.457,24.904L14.957,11.404C15.166,11.195 15.414,11.028 15.688,10.915C15.961,10.801 16.255,10.743 16.551,10.743C16.847,10.743 17.14,10.801 17.414,10.915C17.687,11.028 17.935,11.195 18.145,11.404L24.053,17.313L36.615,4.75L30.053,4.75C29.456,4.75 28.884,4.513 28.462,4.091C28.04,3.669 27.803,3.097 27.803,2.5C27.803,1.903 28.04,1.331 28.462,0.909C28.884,0.487 29.456,0.25 30.053,0.25L42.053,0.25C42.649,0.25 43.222,0.487 43.644,0.909C44.066,1.331 44.303,1.903 44.303,2.5Z" fill="#FF0000"/>
</svg>
