<svg width="32" height="24" viewBox="0 0 32 24" fill="none" xmlns="http://www.w3.org/2000/svg" xmlns:xlink="http://www.w3.org/1999/xlink">
<path d="M16.213,5.216C20.644,5.216 24.907,6.919 28.119,9.972C28.36,10.208 28.747,10.205 28.985,9.966L31.297,7.632C31.418,7.511 31.485,7.347 31.484,7.175C31.483,7.004 31.414,6.84 31.292,6.72C22.862,-1.359 9.562,-1.359 1.132,6.72C1.01,6.84 0.941,7.004 0.939,7.175C0.938,7.346 1.005,7.511 1.126,7.632L3.439,9.966C3.677,10.206 4.064,10.209 4.305,9.972C7.518,6.919 11.78,5.216 16.213,5.216ZM16.213,12.807C18.648,12.807 20.996,13.712 22.801,15.346C23.045,15.578 23.429,15.573 23.667,15.335L25.977,13.002C26.098,12.879 26.166,12.713 26.164,12.541C26.162,12.368 26.091,12.204 25.967,12.084C20.471,6.971 11.959,6.971 6.463,12.084C6.339,12.204 6.268,12.368 6.266,12.541C6.264,12.714 6.332,12.88 6.454,13.002L8.763,15.335C9.001,15.573 9.385,15.578 9.629,15.346C11.433,13.713 13.779,12.808 16.213,12.807ZM20.839,17.915C20.842,18.088 20.774,18.255 20.651,18.376L16.656,22.407C16.539,22.526 16.379,22.592 16.213,22.592C16.046,22.592 15.886,22.526 15.769,22.407L11.774,18.376C11.651,18.254 11.583,18.088 11.586,17.915C11.59,17.742 11.665,17.578 11.793,17.462C14.344,15.304 18.081,15.304 20.632,17.462C20.76,17.578 20.835,17.742 20.839,17.915Z" clip-rule="evenodd" fill-rule="evenodd" fill="#FFFFFF"/>
</svg>
